<svg width="48" height="48" viewBox="0 0 48 48" fill="none" xmlns="http://www.w3.org/2000/svg">
<rect width="48" height="48" rx="12" fill="#FFF5F5"/>
<path fill-rule="evenodd" clip-rule="evenodd" d="M31.3846 20.7201C31.7976 20.7541 32.1056 21.1151 32.0726 21.5281C32.0666 21.5961 31.5246 28.3071 31.2126 31.1221C31.0186 32.8691 29.8646 33.9321 28.1226 33.9641C26.7896 33.9871 25.5036 34.0001 24.2466 34.0001C22.8916 34.0001 21.5706 33.9851 20.2636 33.9581C18.5916 33.9251 17.4346 32.8411 17.2456 31.1291C16.9306 28.2891 16.3916 21.5951 16.3866 21.5281C16.3526 21.1151 16.6606 20.7531 17.0736 20.7201C17.4806 20.7091 17.8486 20.9951 17.8816 21.4071C17.8848 21.4505 18.1051 24.1841 18.3453 26.8888L18.3935 27.4285C18.5144 28.7729 18.637 30.0647 18.7366 30.9641C18.8436 31.9371 19.3686 32.4391 20.2946 32.4581C22.7946 32.5111 25.3456 32.5141 28.0956 32.4641C29.0796 32.4451 29.6116 31.9531 29.7216 30.9571C30.0316 28.1631 30.5716 21.4751 30.5776 21.4071C30.6106 20.9951 30.9756 20.7071 31.3846 20.7201ZM26.3454 14.0004C27.2634 14.0004 28.0704 14.6194 28.3074 15.5064L28.5614 16.7674C28.6435 17.1807 29.0062 17.4826 29.4263 17.4893L32.708 17.4894C33.122 17.4894 33.458 17.8254 33.458 18.2394C33.458 18.6534 33.122 18.9894 32.708 18.9894L29.4556 18.9892C29.4505 18.9893 29.4455 18.9894 29.4404 18.9894L29.416 18.9884L19.0416 18.9892C19.0336 18.9893 19.0255 18.9894 19.0174 18.9894L19.002 18.9884L15.75 18.9894C15.336 18.9894 15 18.6534 15 18.2394C15 17.8254 15.336 17.4894 15.75 17.4894L19.031 17.4884L19.132 17.482C19.5083 17.4332 19.821 17.1474 19.8974 16.7674L20.1404 15.5514C20.3874 14.6194 21.1944 14.0004 22.1124 14.0004H26.3454ZM26.3454 15.5004H22.1124C21.8724 15.5004 21.6614 15.6614 21.6004 15.8924L21.3674 17.0624C21.3378 17.2106 21.2947 17.3534 21.2395 17.4896H27.2186C27.1634 17.3534 27.1201 17.2106 27.0904 17.0624L26.8474 15.8464C26.7964 15.6614 26.5854 15.5004 26.3454 15.5004Z" fill="#B80020"/>
</svg>
