<svg width="48" height="48" viewBox="0 0 48 48" fill="none" xmlns="http://www.w3.org/2000/svg">
<rect width="48" height="48" rx="12" fill="#F6F8FD"/>
<path fill-rule="evenodd" clip-rule="evenodd" d="M23.492 14.0368C23.906 14.0368 24.242 14.3728 24.242 14.7868C24.242 15.2008 23.906 15.5368 23.492 15.5368H19.753C17.169 15.5368 15.5 17.3068 15.5 20.0458V28.3598C15.5 31.0988 17.169 32.8688 19.753 32.8688H28.577C31.161 32.8688 32.831 31.0988 32.831 28.3598V24.3318C32.831 23.9178 33.167 23.5818 33.581 23.5818C33.995 23.5818 34.331 23.9178 34.331 24.3318V28.3598C34.331 31.9538 32.018 34.3688 28.577 34.3688H19.753C16.312 34.3688 14 31.9538 14 28.3598V20.0458C14 16.4518 16.312 14.0368 19.753 14.0368H23.492ZM32.2016 14.9154L33.4186 16.1324C34.0116 16.7244 34.3376 17.5114 34.3366 18.3494C34.3366 19.1874 34.0106 19.9734 33.4186 20.5644L25.9096 28.0734C25.3586 28.6244 24.6246 28.9284 23.8446 28.9284H20.0986C19.8966 28.9284 19.7026 28.8464 19.5616 28.7014C19.4206 28.5574 19.3436 28.3624 19.3486 28.1594L19.4426 24.3804C19.4616 23.6284 19.7646 22.9214 20.2966 22.3884H20.2976L27.7706 14.9154C28.9926 13.6954 30.9796 13.6954 32.2016 14.9154ZM27.155 17.6514L21.3576 23.4494C21.0986 23.7084 20.9516 24.0524 20.9426 24.4174L20.8676 27.4284H23.8446C24.2246 27.4284 24.5806 27.2814 24.8496 27.0124L30.682 21.1784L27.155 17.6514ZM28.8306 15.9764L28.215 16.5904L31.742 20.1184L32.3586 19.5034C32.6666 19.1954 32.8366 18.7854 32.8366 18.3494C32.8366 17.9124 32.6666 17.5014 32.3586 17.1934L31.1416 15.9764C30.5046 15.3414 29.4686 15.3414 28.8306 15.9764Z" fill="#3754DB"/>
</svg>
