<svg width="34" height="30" viewBox="0 0 34 30" fill="none" xmlns="http://www.w3.org/2000/svg">
<path opacity="0.4" d="M33.6663 21.5663C33.6663 26.2163 29.933 29.983 25.283 29.9997H25.2663H8.74967C4.11634 29.9997 0.333008 26.2497 0.333008 21.5997V21.583C0.333008 21.583 0.343008 14.2063 0.356341 10.4963C0.358008 9.79967 1.15801 9.40967 1.70301 9.84301C5.66301 12.9847 12.7447 18.713 12.833 18.788C14.0163 19.7363 15.5163 20.2713 17.0497 20.2713C18.583 20.2713 20.083 19.7363 21.2663 18.7697C21.3547 18.7113 28.278 13.1547 32.298 9.96134C32.8447 9.52634 33.648 9.91634 33.6497 10.6113C33.6663 14.293 33.6663 21.5663 33.6663 21.5663Z" fill="#3754DB"/>
<path d="M32.793 4.45569C31.3496 1.73569 28.5096 -0.000976562 25.383 -0.000976562H8.74964C5.62298 -0.000976562 2.78298 1.73569 1.33964 4.45569C1.01631 5.06402 1.16964 5.82236 1.70798 6.25236L14.083 16.1507C14.9496 16.8507 15.9996 17.199 17.0496 17.199C17.0563 17.199 17.0613 17.199 17.0663 17.199C17.0713 17.199 17.078 17.199 17.083 17.199C18.133 17.199 19.183 16.8507 20.0496 16.1507L32.4246 6.25236C32.963 5.82236 33.1163 5.06402 32.793 4.45569Z" fill="#3754DB"/>
</svg>
