<svg width="24" height="24" viewBox="0 0 24 24" fill="none" xmlns="http://www.w3.org/2000/svg">
<path d="M4.54004 13.9697H7.91992C9.04956 13.9697 9.95974 14.8825 9.95996 16.0303V19.4395C9.95996 20.5784 9.04868 21.5 7.91992 21.5H4.54004C3.42 21.5 2.5 20.5771 2.5 19.4395V16.0303C2.50023 14.8838 3.41913 13.9697 4.54004 13.9697ZM16.0801 13.9697H19.46C20.5809 13.9697 21.4998 14.8838 21.5 16.0303V19.4395C21.5 20.5771 20.58 21.5 19.46 21.5H16.0801C14.9513 21.5 14.04 20.5784 14.04 19.4395V16.0303C14.0403 14.8825 14.9505 13.9697 16.0801 13.9697ZM4.54004 2.5H7.91992C9.04841 2.5 9.95972 3.42065 9.95996 4.56055V7.96973C9.95996 9.11743 9.04995 10.0303 7.91992 10.0303H4.54004C3.41873 10.0303 2.5 9.11614 2.5 7.96973V4.56055C2.50024 3.42194 3.42028 2.5 4.54004 2.5ZM16.0801 2.5H19.46C20.5797 2.5 21.4998 3.42194 21.5 4.56055V7.96973C21.5 9.11614 20.5813 10.0303 19.46 10.0303H16.0801C14.9501 10.0303 14.04 9.11742 14.04 7.96973V4.56055C14.0403 3.42065 14.9516 2.50001 16.0801 2.5Z" stroke="#3754DB"/>
</svg>
